<?xml version="1.0" encoding="utf-8"?>
<!-- Generator: Adobe Illustrator 20.1.0, SVG Export Plug-In . SVG Version: 6.00 Build 0)  -->
<svg version="1.1" xmlns="http://www.w3.org/2000/svg" xmlns:xlink="http://www.w3.org/1999/xlink" x="0px" y="0px"
	 viewBox="0 0 297 280.5" style="enable-background:new 0 0 297 280.5;" xml:space="preserve">
<style type="text/css">
	.st0{fill:#154479;}
	.st1{fill:#0A7F99;}
	.st2{fill:#0AA5B0;}
	.st3{fill:#FFFFFF;}
	.st4{fill:#00556B;}
	.st5{fill:#EC6072;}
	.st6{display:none;}
	.st7{display:inline;}
	.st8{display:inline;fill:#004359;}
	.st9{fill:#004359;}
</style>
<g id="Layer_1">
	<g>
		<g>
			<path class="st0" d="M266.7,224.9c-5.3,3.4,0.8,12.3,0.8,12.3c4.5,19.8-4.1-19.2-15.1-6.3c-6.4,7.6-9.8,20.5-9.8,20.5l-1-4.5
				c0,0,10.3-12.4,7.8-21.4c-2.5-9-23.1-3.4-23.1-3.4c18.8-2.2,29-8.1,29.4-11.7c0.9-9.6-23.5-18.6-23.5-18.6s27,5.1,28-9.3
				c0.9-11.9-25.3-25.3-25.3-25.3s26.9-2.4,23.6-14.3c-2.6-9.5-31.3-20.7-31.3-20.7s28.2-26.5,16.4-38.4c-11.5-11.5-50,4.4-50,4.4
				s22.7-37.3-2.5-41.5c-23.5-3.8-53.7,39.8-53.7,39.8l17.1,6.5c0,0,72.6,171.8,97,169.5C276.1,260.3,282,222,282,222
				S272,221.4,266.7,224.9z"/>
			<path class="st1" d="M100.6,274.4h129.9c0,0,35.9,1.3,47.2-11.9c12.6-14.6,4.2-40.5,4.2-40.5s-38,47.8-47.2,14
				C232.3,227,271,81.3,163.9,79.4C56.8,77.4,100.6,274.4,100.6,274.4z"/>
			<path class="st2" d="M195.4,211.2c-1.4-8.9-2.8-17.8-4.5-26.7c-0.9-4.4-1.7-8.8-2.5-13.3c-0.7-3.8-0.6-11.5,0-15.5
				c-10.7,1.5-22.5,3.6-33.5,3.5c-5.9-0.1-14.8-1.4-20.7-1.9c-4.3-0.4-5.2,5.5-9.5,5c-0.1,1.8-0.6,3.5-1.2,5.2
				c-0.8,2.3-1.4,4.7-1.8,7.1c-0.8,4.7-1.1,9.5-1.2,14.2c-0.2,9.6-0.2,19.3,0.4,28.8c1,18.1,4.1,35.9,8,53.6c0.2,1,0.5,2.1,0.7,3.1
				h89.9c-3.2-5.9-6.6-11.6-9.6-17.5C202.4,242.5,197.8,227.1,195.4,211.2z"/>
			<g>
				<path class="st0" d="M265.8,175.1c2.7,2,12.7,7.1,14.8,3.7c2.1-3.4-9.7-11.2-9.7-11.2s16.5-1.8,14.8-6.4
					c-1.7-4.6-15.4-2.8-15.4-2.8s13.5-10.1,9.3-12.9c-4.2-2.8-16.1,3.4-16.1,3.4s6.3-10.4,0.5-12.1c-5.7-1.7-7.8,12.3-7.8,12.3
					s-13.5-11.4-16.6-7.8c-3.1,3.5,7.5,16,7.5,16L265.8,175.1z"/>
				<path class="st1" d="M236.8,189.1c0,0,34.1-9.4,39-20.8c4.9-11.4-7.8-30.4-26.1-21.5c-18.3,8.9-20.1,14.3-20.1,14.3
					S246,167.2,236.8,189.1z"/>
			</g>
			<g>
				<path class="st0" d="M66.2,179.7c-2.3,2.4-11.2,9.3-13.9,6.4c-2.7-3,7.4-12.8,7.4-12.8s-16.6,1.2-15.7-3.6
					c0.9-4.8,14.6-5.6,14.6-5.6s-15.2-7.5-11.5-11c3.6-3.5,16.5,0.4,16.5,0.4s-8.1-9.1-2.8-11.8c5.3-2.7,9.9,10.6,9.9,10.6
					s11.2-13.7,14.9-10.7c3.7,2.9-4.4,17.1-4.4,17.1L66.2,179.7z"/>
				<path class="st1" d="M99.7,197.7c0,0-37.7-12.5-44.6-22.8c-6.9-10.3,2.1-31.3,21.7-26c19.6,5.3,23.8,6.4,23.8,6.4
					S86.6,177.9,99.7,197.7z"/>
			</g>
			<g>
				<circle class="st3" cx="133.9" cy="125.7" r="15.3"/>
			</g>
			<g>
				<circle class="st3" cx="170.1" cy="126" r="15.3"/>
			</g>
			<path class="st3" d="M103.3,147.3c0,0-5.9,14.2,0,16c5.9,1.8,12.2-8,12.2-8s-3,16.1,4,16.6c7,0.4,14.7-14.6,14.7-14.6
				s-0.5,15.9,5.6,14.6c6.1-1.3,11.5-14.6,11.5-14.6s4.6,17,12.2,14.8c7.6-2.2,6.7-16.7,6.7-16.7s6.8,16.3,14.4,14.3
				c7.6-1.9,6.2-14.9,6.2-14.9s9.4,8.5,13.7,4.8c4.2-3.7-1.2-16.8-1.2-16.8s6.6,9.6,11.3,5c4.7-4.6-1.2-12.4-1.2-12.4
				s9.3,3.6,9.7-2.3c0.4-5.9-8.5-8.9-8.5-8.9s-2,15.2-15.1,21.9c-13.1,6.7-59,12.2-76.3,8.4C105.8,150.8,103.3,147.3,103.3,147.3z"
				/>
			<path class="st1" d="M110.9,123c0,0-16.5,22.1,6,25.5c22.5,3.5,71.6,4.7,84.6-8.4c13-13.1,16.4-26.5,16.4-26.5s5,43.2-51.9,46.2
				C109,162.8,89.6,153.2,110.9,123z"/>
			<g>
				<path class="st4" d="M148.4,149.8c1.3-0.4,1.4-5.3-3.2-5.6c-4.7-0.3-6.1,3.1-4.4,4.3C142.5,149.8,145.6,150.6,148.4,149.8z"/>
				<path class="st4" d="M153.6,149.8c-1.3-0.4-1.4-5.3,3.2-5.6c4.7-0.3,6.1,3.1,4.4,4.3C159.5,149.8,156.4,150.6,153.6,149.8z"/>
			</g>
			
				<ellipse transform="matrix(0.7164 -0.6977 0.6977 0.7164 -39.2555 176.7341)" class="st5" cx="197.8" cy="136.7" rx="12.7" ry="8.6"/>
			
				<ellipse transform="matrix(0.5293 -0.8485 0.8485 0.5293 -66.9738 161.8112)" class="st5" cx="112.3" cy="141.3" rx="8.6" ry="12.7"/>
			<g>
				
					<ellipse transform="matrix(0.9004 -0.435 0.435 0.9004 -45.7457 127.9836)" class="st5" cx="256.7" cy="163.9" rx="7.3" ry="9.4"/>
				<circle class="st5" cx="260.3" cy="150.1" r="2.9"/>
				<circle class="st5" cx="268.1" cy="156.6" r="2.9"/>
				<circle class="st5" cx="270.1" cy="166.8" r="2.9"/>
			</g>
			<g>
				
					<ellipse transform="matrix(0.5542 -0.8324 0.8324 0.5542 -106.3885 136.8897)" class="st5" cx="74.6" cy="167.8" rx="9.4" ry="7.3"/>
				
					<ellipse transform="matrix(0.8611 -0.5084 0.5084 0.8611 -78.8251 54.8082)" class="st5" cx="60.9" cy="171.7" rx="2.9" ry="2.9"/>
				
					<ellipse transform="matrix(0.8611 -0.5084 0.5084 0.8611 -73.5057 54.1984)" class="st5" cx="62.5" cy="161.6" rx="2.9" ry="2.9"/>
				
					<ellipse transform="matrix(0.8611 -0.5085 0.5085 0.8611 -68.9339 57.2445)" class="st5" cx="70.3" cy="154.8" rx="2.9" ry="2.9"/>
			</g>
		</g>
	</g>
</g>
<g id="bottom" class="st6">
	<g class="st7">
		<path class="st5" d="M72.1,140.2c-4.5-0.9-58-22-49.1-44.4c8.9-22.4,35.4-0.3,35.4-0.3s15.3-30.1,33.5-16.1
			C110.1,93.3,74.5,140.7,72.1,140.2z"/>
	</g>
	<circle class="st8" cx="126.5" cy="127.8" r="5.6"/>
	<circle class="st8" cx="164.3" cy="125.7" r="5.6"/>
</g>
<g id="middle" class="st6">
	<g class="st7">
		<path class="st5" d="M81.5,98.6c-4.5-0.9-58-22-49.1-44.4c8.9-22.4,35.4-0.3,35.4-0.3s15.3-30.1,33.5-16.1
			C119.5,51.7,83.9,99,81.5,98.6z"/>
	</g>
	<circle class="st8" cx="130.4" cy="118.6" r="5.6"/>
	<circle class="st8" cx="170.1" cy="118.6" r="5.6"/>
</g>
<g id="top">
	<g>
		<path class="st5" d="M51.8,66.7c-4.5-0.9-58-22-49.1-44.4c8.9-22.4,35.4-0.3,35.4-0.3S53.4-8.1,71.6,5.8
			C89.7,19.8,54.2,67.1,51.8,66.7z"/>
	</g>
	<circle class="st9" cx="125.9" cy="123.1" r="5.6"/>
	<circle class="st9" cx="177.9" cy="125.7" r="5.6"/>
</g>
</svg>
