<?xml version="1.0" encoding="utf-8"?>
<!-- Generator: Adobe Illustrator 20.1.0, SVG Export Plug-In . SVG Version: 6.00 Build 0)  -->
<svg version="1.1" id="Layer_1" xmlns="http://www.w3.org/2000/svg" xmlns:xlink="http://www.w3.org/1999/xlink" x="0px" y="0px"
	 viewBox="0 0 79.7 84" style="enable-background:new 0 0 79.7 84;" xml:space="preserve">
<style type="text/css">
	.st0{fill:none;stroke:#0a7f99;stroke-width:1.2134;stroke-miterlimit:10;}
</style>
<path class="st0" d="M37.8,70.8c0.5,0.3,1.3,0.4,1.4-0.4c0.2-0.8-0.6-1.3-1.1-1.7c-0.7-0.6-1.4,0.7-0.7,1.3
	C37.4,70.3,37.5,70.6,37.8,70.8z M38.5,69.5L38.5,69.5L38.5,69.5C38.5,69.5,38.5,69.5,38.5,69.5z"/>
<path class="st0" d="M45.3,64.6c0.4-0.3,0.8-0.7,0.7-1.3c-0.2-0.5-0.5-0.8-1-1.1c-0.8-0.5-1.5,0.9-0.7,1.3c0,0,0,0,0,0
	C44.1,64.1,44.6,65,45.3,64.6z"/>
<path class="st0" d="M47.1,53.5c0.1,0.2,0.1,0.3,0.2,0.5c0.5,0.6,1.3,0,1.2-0.8c0-0.1-0.1-0.3-0.1-0.4c-0.1-1-1.4-1-1.4,0
	c0,0.1,0,0.2,0,0.3C47,53.2,47,53.4,47.1,53.5z"/>
<path class="st0" d="M47.1,72.8c-0.4-0.1-0.7,0.4-0.7,0.8c0,0.1,0,0.1,0,0.2c0,0.1,0,0.1,0,0.2c0,0.4,0.3,0.8,0.7,0.8
	c0.5-0.1,0.9-0.3,0.9-1C48,73.2,47.6,72.9,47.1,72.8z"/>
<path class="st0" d="M38.4,52.2C38.4,52.2,38.4,52.2,38.4,52.2c0.2,0,0.3,0,0.4,0c0.9,0,0.9-1.6,0-1.6c-0.1,0-0.2,0-0.3,0
	c0,0-0.1,0-0.1,0C37.5,50.6,37.5,52.2,38.4,52.2z"/>
<path class="st0" d="M55,1c-1.5,5.8-3.4,11.5-5.5,17.1c-3.2-0.6-6.7-0.6-8.3-0.7c-2.3-0.1-9.1,0-11.8,2.6c-0.1-0.1-0.2-0.2-0.3-0.2
	c-5-1.3-9.9,4.4-10.1,9.8c0,0.4,0.3,0.8,0.7,0.8c2.5-0.1,4.9-0.6,7.4-0.3c0.5,0.1,0.7-0.4,0.6-0.8c0.1-0.2,0.2-0.3,0.3-0.5
	c0.3,15.1,1.6,30.2,3,45.2c0,0,0,0,0,0.1c0,0,0,0.1,0,0.1c1.9,9,16.7,11.5,21.1,3.9"/>
<path class="st0" d="M52.4,77.4c1-8.4,1-16.8,1.9-25.2c1-9.4,2.6-18.7,2.4-28.2c0-0.3-0.2-0.5-0.4-0.7c0-0.2,0-0.4,0-0.5
	c-0.2-1.9-1.8-3.2-3.8-4c1.9-5.3,3.7-10.7,5.4-16.1"/>
<path class="st0" d="M26.1,26.8c-0.4-0.8-0.9-1.4-1.4-2c0.4-0.3,0.8-0.6,1.3-0.8C26,24.9,26.1,25.9,26.1,26.8z"/>
<path class="st0" d="M27.4,26.5c0-1-0.1-2-0.1-3c0.2,0,0.4-0.1,0.6-0.1c0,1,0,2,0,3C27.8,26.4,27.6,26.4,27.4,26.5z"/>
<path class="st0" d="M29.7,22.9c0.8,0.7,1.4,1.8,1.9,2.8C29.9,24.6,29.4,23.7,29.7,22.9z"/>
<path class="st0" d="M51,77.1c-3.7,6.6-17,4.3-18.7-3.3c-1.5-15.9-2.8-31.9-3-47.9c2.9,3.7,10.3,4.8,13.7,5c3.1,0,9.7-0.8,12.3-4.1
	c-0.1,7.9-1.2,15.7-2.2,23.5C52.1,59.1,52.1,68.2,51,77.1"/>
<path class="st0" d="M56,3C56,3.3,56,3.6,56,4c-0.1-0.1-0.2-0.2-0.3-0.3C55.8,3.4,55.9,3.2,56,3"/>
<path class="st0" d="M55.9,5.1c-0.2,1-0.6,2.2-1,3.3C55.3,7.3,55.6,6.2,55.9,5.1z"/>
<path class="st0" d="M52,20.7c5.2,1.9,1.6,6.1-2,7.4c-0.4,0.1-0.8,0.2-1.2,0.4C49.9,25.9,50.9,23.3,52,20.7
	C51.9,20.6,51.9,20.7,52,20.7z"/>
<path class="st0" d="M40.6,19c2.8,0,5.5,0.2,8.3,0.8c-1.2,2.9-2.4,5.9-3.6,8.7c-0.1,0.2-0.1,0.4,0,0.6c-0.7,0.1-1.5,0.1-2.2,0.1
	c-3.2-0.2-6.7-1.1-9.7-2.6c0-0.1,0-0.2,0-0.4c-0.5-1.6-1.4-3.4-2.7-4.6C33,19.9,38.9,18.9,40.6,19z"/>
<path class="st0" d="M28.5,21.3c0,0.1-0.1,0.2-0.1,0.3c-0.1,0-0.2,0.1-0.3,0.3c-0.3,0-0.6,0-0.9,0.1c0-0.1,0-0.1,0-0.2
	c0-0.3-0.1-0.4-0.3-0.5C27.4,21.2,27.9,21.2,28.5,21.3z"/>
<path class="st0" d="M26,21.5c-0.2,0.2-0.2,0.4-0.2,0.7c0,0.1,0,0.1,0,0.2C24.4,23,23.1,24,22,25.2c-0.6,0.7,0.3,1.8,1,1.1
	c0.2-0.2,0.4-0.4,0.6-0.6c0.7,0.8,1.3,1.6,1.6,2.7c-1.6,0-3.1,0.3-4.7,0.4C20.9,25.7,23.2,22.4,26,21.5z"/>
<path class="st0" d="M40,35.9c-0.8-0.5-1.6-0.9-2.5-1.4c-0.3-0.1-0.6-0.2-0.8,0.1c-0.6,0.8-1.2,1.5-1.9,2.2c0-0.3-0.2-0.6-0.5-0.7
	c-0.7-0.3-1.7-0.6-2-1.4c-0.4-0.9-1.6-0.1-1.2,0.8c0.6,1.1,1.8,1.7,2.8,2.1c-0.1,0-0.1,0.1-0.2,0.1c-0.5-0.3-1.1-0.5-1.7-0.6
	c-0.6-0.1-0.8,0.6-0.6,1.1c-0.1,0.1-0.1,0.2-0.1,0.4c0,2.4-0.4,5.1,0.7,7.3c0.1,0.2,0.2,0.3,0.4,0.3c0.1,0.3,0.4,0.4,0.7,0.4
	c0.7-0.1,1.3-0.4,1.7-0.9c0.4,1.2,1.1,2.2,1.4,3.4c0.1,0.2,0.2,0.5,0.5,0.5c1.7,0.4,3.7,0.2,4.9-1.1c0,0,0,0,0,0
	c2.5,0.7,4.9,1.4,7.5,1.4c0.4,0,0.7-0.3,0.7-0.8c0.1-1.1,0.2-2.2,0.2-3.4c0.2,0,0.4,0,0.6-0.2c1.7-1.7,2.7-4.5,1.9-7
	c-0.2-0.6-0.4-1-0.7-1.4c0.9-0.4,1.7-1.2,2.3-2.2c0.5-0.8-0.7-1.6-1.2-0.8c-0.8,1.3-2,1.9-3.3,1.9c-0.1,0-0.2,0-0.3,0
	c-0.2,0-0.4-0.1-0.6-0.1c-0.3-0.1-0.5,0-0.7,0.3c-0.2,0-0.4,0.1-0.6,0.2c-0.5-0.7-1.3-1.1-2.5-1.1c-1.6,0-3.1,0.5-4.6,1.2
	C40.4,36.4,40.4,36,40,35.9z M37.4,36.1c0.6,0.3,1.2,0.7,1.8,1c-0.6,0.3-1.2,0.6-1.8,0.8c-0.4,0.2-0.6,0.7-0.4,1.1
	c0.4,0.8,0.7,1.7,0.9,2.5c-0.4,0-0.9,0-1.3,0c-0.1,0-0.2,0.1-0.3,0.2c0,0,0,0,0,0c-0.1-1.2-0.6-2.3-1.4-3.1
	C35.8,37.9,36.7,37.1,37.4,36.1z M33.2,45c-0.8-1.8-0.5-4.1-0.5-6.1C35.1,39.9,35.9,44,33.2,45z M37.4,48.3
	c-0.4-1.1-1.1-2.1-1.4-3.3c0-0.2-0.1-0.3-0.3-0.4c0.2-0.4,0.4-0.9,0.5-1.5c0.1,0.1,0.2,0.1,0.4,0.1c1.9-0.3,4,0.4,4.4,2.7
	C41.5,48.3,38.9,48.5,37.4,48.3z M48.1,42.8c0.9,1.5,0.6,3.8,0.5,5.7c-2.1,0-4.2-0.6-6.2-1.2c0.1-0.4,0.1-0.8,0.1-1.2
	c0-0.3-0.1-0.5-0.1-0.8c0.2,0,0.3-0.1,0.4-0.4C43.7,42.6,46.2,39.5,48.1,42.8z M49.2,37.8c0.1,0,0.2,0,0.4,0
	c0.8,0.1,1.5,0.6,1.8,1.8c0.4,1.7-0.3,3.5-1.4,4.7c-0.2-1.4-0.6-2.7-1.7-3.6c-0.1-0.1-0.3-0.2-0.4-0.3c0.2-0.9,0.3-1.7,0.2-2.4
	C48.4,37.9,48.9,37.8,49.2,37.8z M46,37.1c0.2,0.1,0.3,0.2,0.5,0.3c-0.1,0.3,0.1,0.7,0.3,0.9c0,0.5-0.1,1.1-0.2,1.5
	c-2.1-0.4-3.9,1.7-4.9,3.9c-0.5-0.8-1.4-1.4-2.3-1.8c0,0,0-0.1,0-0.1c-0.3-1-0.6-1.9-0.9-2.7c1.5-0.6,3-1.3,4.5-1.8
	C44,37.1,45,36.9,46,37.1z"/>
<path class="st0" d="M43.7,76.9c0.3-1.9-0.3-3.8-1-5.4c-0.1-0.3-0.5-0.5-0.8-0.4c-1.7,0.8-3.5,1.3-5.4,1.4c-0.3,0-0.5,0.2-0.6,0.4
	c-0.5-0.3-1.3,0.3-0.9,1.1c1.6,3.6,4.3,5.9,7.9,4.2"/>
<path class="st0" d="M42.4,76.7c-2.6,1.2-4.4-0.3-5.7-2.7c1.8-0.1,3.5-0.5,5.1-1.2c0.4,1.1,0.8,2.4,0.6,3.7"/>
<path class="st0" d="M40.3,61.9c0.2,0.3,0.5,0.4,0.8,0.4c2-0.4,3.9-0.7,5.8-1.4c0.4-0.1,0.5-0.5,0.5-1c-0.3-1.9-0.4-4.2-1.6-5.7
	c-1.2-1.6-3.4-0.5-4.7,0.4c-0.2,0.2-0.3,0.4-0.3,0.6C39.2,57,39.2,59.5,40.3,61.9z M45.2,55.8c0.5,1.1,0.7,2.4,0.8,3.7
	c-1.5,0.5-3.1,0.8-4.7,1.1c-0.7-1.7-0.6-3.5,0.9-4.7c0.1-0.1,0.2-0.2,0.2-0.4C43.4,54.9,44.6,54.4,45.2,55.8z"/>
<path class="st0" d="M39.5,65.3c0-2.7-0.3-5.3-0.3-8c0-0.3-0.1-0.5-0.3-0.6c0.4,0,0.7-0.1,0.9-0.5c0.3-0.6-0.2-1.1-0.5-1.5
	c-0.5-0.6-1.2,0-1.2,0.6c-0.4,0.3-0.4,1.1,0,1.3c-1.5,0.4-2.9,1-4.3,1.8c-0.2,0.1-0.3,0.3-0.3,0.5c-0.2,0.2-0.3,0.4-0.3,0.8
	c0.3,2.3,0.6,4.6,0.9,6.9c0,0.3,0.4,0.6,0.7,0.6c1.4-0.1,2.8-0.6,4.2-1.1C39.2,65.9,39.5,65.6,39.5,65.3z M34.6,59.7
	c1-0.6,2.1-1,3.2-1.4c0.1,2.1,0.2,4.3,0.3,6.4c-0.9,0.3-1.8,0.6-2.7,0.7C35.1,63.5,34.8,61.6,34.6,59.7z"/>
<path class="st0" d="M48.9,62.9c-2,1.1-3.9,2.3-5.8,3.4c0,0,0,0,0,0c-0.5-0.9-1.7-0.1-1.2,0.8c0.9,1.6,1.8,3.1,2.5,4.8
	c0.1,0.4,0.7,0.5,0.9,0.3c1.5-1.2,3.1-1.6,4.9-1.6c0.4,0,0.7-0.3,0.7-0.8c0-2.2-0.3-4.4-0.9-6.4C49.7,62.9,49.3,62.6,48.9,62.9z
	 M43.8,67.6c1.7-1,3.3-2,5-3c0.4,1.4,0.6,2.9,0.6,4.4c-1.5,0.1-2.9,0.5-4.2,1.3C44.8,69.4,44.3,68.5,43.8,67.6z"/>
<path class="st0" d="M49.8,54.2c0,0.1,0,0.2,0,0.3c0,1,1.4,1,1.4,0c0-0.1,0-0.2,0-0.3C51.2,53.2,49.8,53.2,49.8,54.2z"/>
</svg>
